<?xml version="1.0" encoding="UTF-8" standalone="no"?>
<!-- Created with Inkscape (http://www.inkscape.org/) -->

<svg
   width="1349.522"
   height="1349.522"
   viewBox="0 0 357.06102 357.06102"
   version="1.1"
   id="svg1"
   inkscape:version="1.3 (0e150ed6c4, 2023-07-21)"
   sodipodi:docname="animation-hat.svg"
   xmlns:inkscape="http://www.inkscape.org/namespaces/inkscape"
   xmlns:sodipodi="http://sodipodi.sourceforge.net/DTD/sodipodi-0.dtd"
   xmlns="http://www.w3.org/2000/svg"
   xmlns:svg="http://www.w3.org/2000/svg">
  <sodipodi:namedview
     id="namedview1"
     pagecolor="#ffffff"
     bordercolor="#000000"
     borderopacity="0.25"
     inkscape:showpageshadow="2"
     inkscape:pageopacity="0.0"
     inkscape:pagecheckerboard="0"
     inkscape:deskcolor="#d1d1d1"
     inkscape:document-units="mm"
     inkscape:zoom="0.35355339"
     inkscape:cx="299.81328"
     inkscape:cy="668.92302"
     inkscape:window-width="1920"
     inkscape:window-height="1009"
     inkscape:window-x="2728"
     inkscape:window-y="-1"
     inkscape:window-maximized="1"
     inkscape:current-layer="layer2" />
  <defs
     id="defs1" />
  <g
     inkscape:groupmode="layer"
     id="layer2"
     inkscape:label="Ebene 2"
     style="display:inline">
    <path
       style="fill:#ffffff;stroke:#ffffff;stroke-width:1.32292;stroke-dasharray:none;stroke-dashoffset:983.246"
       d="m 87.881957,155.1097 v -13.582 l -8.24529,-8.51948 C 67.302027,120.26343 62.275276,112.52058 58.441553,100.36077 50.52415,75.248351 57.211385,48.012455 75.819156,29.584954 99.990512,5.647761 136.21653,2.0775106 164.43237,20.851687 c 3.36593,2.239611 6.29236,4.521534 6.50319,5.070938 0.23338,0.608182 -3.75681,5.117775 -10.20092,11.528775 -10.41919,10.365647 -13.03118,14.070255 -11.93484,16.927271 0.49191,1.28189 4.93963,1.436026 7.26118,0.251637 0.87773,-0.447794 8.50031,-7.64658 16.93906,-15.997303 10.0669,-9.961893 17.16032,-16.349382 20.62737,-18.574541 35.4014,-22.7206754 82.45378,-9.475957 101.05218,28.445055 5.29243,10.790944 6.8911,18.026546 6.86071,31.051661 -0.0286,12.242456 -1.44543,18.938933 -6.1246,28.9466 -4.10608,8.78194 -8.12514,14.2575 -17.71652,24.13697 l -8.62165,8.88062 v 13.58617 13.58617 H 178.47974 87.881957 Z"
       id="path7"
       inkscape:label="path7" />
    <path
       style="fill:#ffffff;stroke:#ffffff;stroke-width:1.32292;stroke-dasharray:none;stroke-dashoffset:983.246"
       d="m 87.881957,188.41865 v -10.22878 h 90.597783 90.59779 v 10.22878 10.22878 H 178.47974 87.881957 Z"
       id="path8" />
  </g>
  <g
     inkscape:label="Ebene 1"
     inkscape:groupmode="layer"
     id="layer1"
     style="display:inline">
    <path
       d="M 287.63818,23.218362 C 272.66727,8.2474328 252.76197,0.00264583 231.58974,0.00264583 c -19.79322,0 -38.47941,7.20644697 -53.06178,20.37717017 C 163.94559,7.2085228 145.25884,0.00264583 125.46618,0.00264583 c -21.17223,0 -41.077502,8.24478697 -56.048408,23.21571617 -30.905232,30.905303 -30.905227,81.191708 0,112.097028 l 9.5123,9.51233 v 58.04898 c 0,2.33233 1.89086,4.2232 4.223184,4.2232 H 273.90326 c 2.33232,0 4.22318,-1.89087 4.22318,-4.2232 v -58.04898 l 9.5123,-9.51233 c 30.90414,-30.90532 30.90414,-81.191725 -4.5e-4,-112.097028 z M 87.375877,198.65351 V 177.63963 H 269.67951 v 21.01388 z m 194.289593,-69.31084 -10.74941,10.74944 c -0.79199,0.79199 -1.23711,1.86608 -1.23711,2.98607 v 26.11451 H 87.375877 v -26.11451 c 0,-1.11999 -0.445122,-2.19408 -1.237111,-2.98607 L 75.389354,129.34267 C 47.77764,101.73088 47.77764,56.802867 75.389354,29.190516 88.765023,15.814828 106.54913,8.4484528 125.46562,8.4484528 c 17.50144,0 34.03042,6.3100142 46.99897,17.8466442 l -20.81354,20.813011 c -1.64929,1.64929 -3.63363,6.307757 -1.98434,7.956497 0.82437,0.82493 3.26178,0.18075 4.30897,-0.0858 1.13853,-0.28979 2.82288,-1.073914 3.64752,-1.89856 l 23.69094,-23.690977 c 0.0344,-0.03435 0.0631,-0.07095 0.0957,-0.10586 0.0338,-0.0321 0.0698,-0.06025 0.10304,-0.09347 13.37567,-13.375689 31.15978,-20.7420552 50.07571,-20.7420552 18.91649,0 36.70007,7.3663662 50.0763,20.7420552 27.6123,27.612919 27.6123,72.540922 4.5e-4,100.152722 z"
       id="path1-0"
       sodipodi:nodetypes="cscssscssssccccscccscsccscscscccscscsscscc"
       style="display:inline;stroke-width:0.563092" />
  </g>
  <g
     inkscape:groupmode="layer"
     id="layer5"
     inkscape:label="Ebene 4"
     style="display:inline">
    <path
       d="m 257.00994,120.56349 h -24.85092 l 16.09578,-20.55664 c 0.89869,-2.152143 -0.77857,-31.877363 -2.93127,-32.776053 -2.1527,-0.89871 -5.28724,27.36923 -6.18593,29.52137 l -16.13219,23.811323 h -40.25427 l 0.66145,-22.183983 c 0.0695,-2.33129 -2.55231,-31.47475 -4.88463,-31.47475 -2.33232,0 -4.95414,29.14347 -4.88463,31.47475 l 0.66144,22.183983 H 134.05051 L 117.91832,96.752167 c -0.89869,-2.1527 -4.0338,-30.41895 -6.18593,-29.52138 -2.15214,0.8987 -3.82996,30.62392 -2.93127,32.776063 l 16.09578,20.55664 h -24.85147 c -2.332322,0 -4.223184,1.89088 -4.223184,4.2232 0,2.33232 1.890862,4.22319 4.223184,4.22319 h 156.96451 c 2.33233,0 4.2232,-1.89087 4.2232,-4.22319 0,-2.33232 -1.89087,-4.2232 -4.2232,-4.2232 z"
       id="path2-9"
       sodipodi:nodetypes="sccscccsssccccccssssss"
       style="stroke-width:0.563092"
       inkscape:label="path2-9" />
  </g>
</svg>
