<?xml version="1.0" encoding="UTF-8" standalone="no"?>
<!-- Created with Inkscape (http://www.inkscape.org/) -->

<svg
   width="1349.522"
   height="1349.522"
   viewBox="0 0 357.06102 357.06102"
   version="1.1"
   id="svg1"
   inkscape:version="1.3 (0e150ed6c4, 2023-07-21)"
   sodipodi:docname="animation-baby.svg"
   xmlns:inkscape="http://www.inkscape.org/namespaces/inkscape"
   xmlns:sodipodi="http://sodipodi.sourceforge.net/DTD/sodipodi-0.dtd"
   xmlns="http://www.w3.org/2000/svg"
   xmlns:svg="http://www.w3.org/2000/svg">
  <sodipodi:namedview
     id="namedview1"
     pagecolor="#ffffff"
     bordercolor="#000000"
     borderopacity="0.25"
     inkscape:showpageshadow="2"
     inkscape:pageopacity="0.0"
     inkscape:pagecheckerboard="0"
     inkscape:deskcolor="#d1d1d1"
     inkscape:document-units="mm"
     inkscape:zoom="0.35355339"
     inkscape:cx="299.81328"
     inkscape:cy="668.92302"
     inkscape:window-width="1920"
     inkscape:window-height="1009"
     inkscape:window-x="2728"
     inkscape:window-y="-1"
     inkscape:window-maximized="1"
     inkscape:current-layer="svg1" />
  <defs
     id="defs1" />
  <g
     inkscape:groupmode="layer"
     id="layer3"
     inkscape:label="Ebene 3"
     style="display:inline">
    <path
       d="m 71.667731,285.0344 c 14.992766,41.79353 57.227249,72.02402 106.860139,72.02402 49.63288,0 91.86739,-30.23049 106.86014,-72.02402 14.06182,-0.48996 25.42888,-13.81685 25.42888,-30.1325 0,-15.43372 -10.19115,-28.22166 -23.22407,-29.93651 -12.64095,-45.37023 -56.73729,-78.93245 -109.06495,-78.93245 -52.32766,0 -96.423993,33.56222 -109.064954,78.93245 -13.032909,1.71485 -23.224068,14.50279 -23.224068,29.93651 0,16.31565 11.367062,29.64254 25.428883,30.1325 z M 301.0177,254.9019 c 0.47418,8.55184 -4.57877,16.44711 -12.54296,19.59838 3.06974,-12.72454 3.56947,-25.93371 1.46988,-38.85379 7.14446,3.69502 11.47291,11.22194 11.07308,19.25541 z M 155.58327,155.06113 c -9.35823,9.30922 -10.37264,25.17096 -2.82727,41.38862 0.80373,1.73668 2.545,2.84649 4.45864,2.84177 3.52901,-0.0427 5.85688,-3.68954 4.40963,-6.90843 -9.35823,-20.43131 12.88593,-33.90518 18.0305,-36.69796 1.91085,0 3.7727,0 5.68354,0.29398 -5.58554,9.50522 -9.21125,22.19516 0,30.27948 4.61158,2.90397 9.80701,-2.76021 6.51646,-7.1044 -5.9285,-4.89959 5.19928,-15.93234 8.58001,-20.83193 48.26099,7.74136 80.98454,46.11382 80.98454,93.24791 0,52.76862 -46.15416,95.68906 -102.89145,95.68906 -56.73729,0 -102.891463,-42.92044 -102.891463,-95.68906 0,-47.37906 31.342893,-88.86568 79.946863,-96.50904 z m -88.472159,80.58536 c -2.099588,12.92008 -1.599864,26.12925 1.469882,38.85379 -7.964196,-3.15127 -13.017162,-11.04654 -12.542963,-19.59838 -0.360719,-7.99878 3.961965,-15.4774 11.073081,-19.15741 z"
       id="path1"
       sodipodi:nodetypes="cscscscsccccccccccccccssscccccc"
       style="stroke-width:4.89959" />
    <path
       d="m 204.15274,249.83567 a 4.8995933,4.8995933 0 0 0 4.89959,-4.89958 9.1622394,9.1622394 0 0 1 7.88834,-10.04417 9.1622394,9.1622394 0 0 1 7.88836,10.04417 4.8995982,4.8995982 0 0 0 9.79919,0 18.91243,18.91243 0 0 0 -17.68755,-19.84335 18.91243,18.91243 0 0 0 -17.68752,19.84335 4.8995933,4.8995933 0 0 0 4.89959,4.89958 z"
       id="path3"
       style="stroke-width:4.89959" />
    <path
       d="m 123.06446,249.83567 a 4.8995933,4.8995933 0 0 0 4.89961,-4.89958 9.1622394,9.1622394 0 0 1 7.88835,-10.04417 9.1622394,9.1622394 0 0 1 7.88834,10.04417 4.8995933,4.8995933 0 0 0 9.79918,0 18.91243,18.91243 0 0 0 -17.68752,-19.84335 18.91243,18.91243 0 0 0 -17.68755,19.84335 4.8995933,4.8995933 0 0 0 4.89959,4.89958 z"
       id="path2"
       style="stroke-width:4.89959" />
    <path
       d="m 178.52787,313.30506 c 7.64615,-0.0142 14.52193,-3.29435 19.31123,-8.51695 4.30755,-4.69726 6.92727,-10.96585 6.9016,-17.84286 0,-6.53279 -9.7992,-6.53279 -9.7992,0 0,10.32821 -8.04202,14.57344 -15.76379,15.15316 -8.64016,0.64865 -17.06348,-3.59657 -17.06348,-15.15316 0,-6.53279 -9.79918,-6.53279 -9.79918,0 -0.0542,14.52313 11.68961,26.3328 26.21282,26.35981 z"
       id="path4"
       sodipodi:nodetypes="cscssscc"
       style="display:inline;stroke-width:4.89959" />
    <path
       style="fill:#e9c6af;stroke:#e9c6af;stroke-width:2.64583;stroke-dasharray:none;stroke-dashoffset:983.246"
       d="m 165.61637,346.47611 c -39.39605,-4.70636 -73.036739,-30.98295 -85.183569,-66.53655 -3.343876,-9.78746 -4.316839,-16.29387 -4.293389,-28.71077 0.03221,-17.05635 2.72429,-29.08306 9.812689,-43.83764 9.069864,-18.87902 25.234509,-34.95281 44.143619,-43.89551 6.04267,-2.85776 15.4834,-6.00136 21.36067,-7.11274 l 2.30144,-0.4352 -2.43659,4.04635 c -5.32365,8.8408 -5.40797,21.48378 -0.22979,34.45364 1.62962,4.08173 2.99597,5.27187 6.05238,5.27187 4.205,0 5.90452,-4.4774 3.70117,-9.75077 -1.86296,-4.45869 -1.42517,-11.10436 1.08041,-16.40069 3.65154,-7.71868 14.31845,-16.95555 19.58058,-16.95555 2.11146,0 4.48993,-2.12178 1.96417,1.2786 -4.47522,6.02491 -4.06615,11.14718 -4.07983,15.47597 -0.0169,5.36229 0.78807,8.04988 3.4608,11.554 1.48491,1.94682 2.31605,2.37778 4.58571,2.37778 1.75766,0 3.21458,-0.48895 3.98127,-1.33613 1.50849,-1.66686 1.57781,-6.21591 0.11323,-7.4314 -2.56323,-2.12729 -0.67277,-7.26418 5.61401,-15.25478 l 3.42213,-4.34959 4.98009,1.10427 c 38.70126,8.58152 67.06194,37.45086 73.80006,75.12372 1.59584,8.92227 1.57792,24.44788 -0.0378,32.71375 -2.35159,12.03098 -7.42029,24.17406 -14.55499,34.86928 -4.81677,7.22056 -19.09514,21.36542 -26.46339,26.21595 -7.20059,4.74017 -18.5199,10.23996 -26.3409,12.79842 -13.46106,4.40349 -32.64401,6.35916 -46.33422,4.72372 z m 24.18075,-35.21575 c 4.52837,-2.16723 9.91221,-7.43953 12.22374,-11.97052 0.82075,-1.60877 1.88364,-5.04907 2.36197,-7.64511 1.19026,-6.45975 0.10509,-8.90476 -4.08942,-9.21406 -4.09498,-0.30197 -5.45149,0.96605 -6.11385,5.71495 -0.73239,5.25108 -2.44195,8.36025 -5.77376,10.50067 -4.09,2.62753 -7.9105,3.59021 -12.57099,3.16762 -7.88085,-0.71461 -11.91939,-4.45585 -13.31665,-12.33638 -1.02751,-5.79506 -2.15504,-7.19709 -5.788,-7.19709 -3.99317,0 -5.36997,2.27727 -4.78139,7.90855 1.08562,10.38662 8.25646,19.23812 18.21437,22.48337 5.08855,1.65835 14.65628,0.97028 19.63398,-1.412 z m -63.94895,-61.68667 c 1.31931,-0.88093 2.48373,-3.59024 2.48665,-5.7858 0.004,-2.93001 2.35123,-6.39355 5.1066,-7.53486 2.08056,-0.86181 2.65913,-0.81611 4.89194,0.38633 2.80166,1.5088 4.61127,4.37155 4.61127,7.2949 0,2.06673 1.19436,4.77836 2.48392,5.63943 0.44215,0.29523 1.79025,0.53678 2.99579,0.53678 1.20553,0 2.55363,-0.24155 2.99579,-0.53678 4.38799,-2.92995 2.15733,-13.82504 -3.9584,-19.33383 -3.89906,-3.5121 -7.43074,-4.95227 -12.09526,-4.9323 -4.90746,0.021 -8.88259,1.9137 -12.66,6.02782 -5.02185,5.46946 -6.88633,15.32102 -3.38426,17.88179 1.3674,0.99987 5.24518,1.21172 6.52596,0.35652 z m 81.09963,0 c 1.31931,-0.88093 2.48373,-3.59024 2.48665,-5.7858 0.004,-2.93001 2.35123,-6.39355 5.1066,-7.53486 2.08056,-0.86181 2.65913,-0.81611 4.89193,0.38633 2.95614,1.59198 4.24829,3.82792 4.82748,8.35346 0.47914,3.7438 1.93266,5.14003 5.35096,5.14003 4.39117,0 6.04506,-3.36564 4.71091,-9.58661 -1.9206,-8.9554 -9.22845,-15.25472 -17.69704,-15.25472 -4.58129,0 -8.28969,1.55822 -11.8219,4.96741 -4.15462,4.00991 -5.81773,7.72414 -5.89782,13.17165 -0.0556,3.7805 0.19037,4.81186 1.35029,5.66236 1.50395,1.10275 5.34693,1.37884 6.69194,0.48075 z"
       id="path9"
       sodipodi:nodetypes="sssssscssssssssssssscsscsssssssssssssssssscssssscsssssscssssssssss" />
    <path
       style="fill:#e9c6af;stroke:#e9c6af;stroke-width:13.8071;stroke-dasharray:none;stroke-dashoffset:983.246"
       d="m 1094.4476,1026.5601 c 5.2675,-21.5094 7.9336,-60.04256 6.5019,-93.97108 l -1.6058,-38.05221 8.0264,5.71529 c 18.0713,12.86791 27.7044,34.06281 28.0257,61.66281 0.2947,25.30735 -7.3755,44.26599 -24.1729,59.74929 -13.6291,12.5628 -19.0396,14.1419 -16.7753,4.8959 z"
       id="path10"
       transform="scale(0.26458333)" />
    <path
       style="fill:#e9c6af;stroke:#e9c6af;stroke-width:5;stroke-dasharray:none;stroke-dashoffset:983.246"
       d="m 243.31421,1026.0975 c -18.24716,-13.4623 -30.68441,-38.76377 -30.68441,-62.42216 0,-22.42599 13.75657,-51.61661 29.66291,-62.94292 l 9.48047,-6.35323 -2.7429,41.4384 c -2.37997,35.95552 5.57469,87.17801 10.10354,98.98001 2.27869,5.9382 -5.51384,-1.0967 -15.81961,-8.7001 z"
       id="path11"
       transform="scale(0.26458333)"
       sodipodi:nodetypes="ssscsss" />
  </g>
</svg>
