<?xml version="1.0" encoding="UTF-8" standalone="no"?>
<!-- Created with Inkscape (http://www.inkscape.org/) -->

<svg
   width="1349.522"
   height="1349.522"
   viewBox="0 0 357.06102 357.06102"
   version="1.1"
   id="svg1"
   inkscape:version="1.3 (0e150ed6c4, 2023-07-21)"
   sodipodi:docname="logo_sad.svg"
   xmlns:inkscape="http://www.inkscape.org/namespaces/inkscape"
   xmlns:sodipodi="http://sodipodi.sourceforge.net/DTD/sodipodi-0.dtd"
   xmlns="http://www.w3.org/2000/svg"
   xmlns:svg="http://www.w3.org/2000/svg">
  <sodipodi:namedview
     id="namedview1"
     pagecolor="#ffffff"
     bordercolor="#000000"
     borderopacity="0.25"
     inkscape:showpageshadow="2"
     inkscape:pageopacity="0.0"
     inkscape:pagecheckerboard="0"
     inkscape:deskcolor="#d1d1d1"
     inkscape:document-units="mm"
     inkscape:zoom="0.25"
     inkscape:cx="564"
     inkscape:cy="450"
     inkscape:window-width="1920"
     inkscape:window-height="1009"
     inkscape:window-x="2728"
     inkscape:window-y="-1"
     inkscape:window-maximized="1"
     inkscape:current-layer="layer3" />
  <defs
     id="defs1" />
  <g
     inkscape:groupmode="layer"
     id="layer3"
     inkscape:label="Ebene 3"
     style="display:inline">
    <path
       d="m 71.667731,285.0344 c 14.992766,41.79353 57.227249,72.02402 106.860139,72.02402 49.63288,0 91.86739,-30.23049 106.86014,-72.02402 14.06182,-0.48996 25.42888,-13.81685 25.42888,-30.1325 0,-15.43372 -10.19115,-28.22166 -23.22407,-29.93651 -12.64095,-45.37023 -56.73729,-78.93245 -109.06495,-78.93245 -52.32766,0 -96.423993,33.56222 -109.064954,78.93245 -13.032909,1.71485 -23.224068,14.50279 -23.224068,29.93651 0,16.31565 11.367062,29.64254 25.428883,30.1325 z M 301.0177,254.9019 c 0.47418,8.55184 -4.57877,16.44711 -12.54296,19.59838 3.06974,-12.72454 3.56947,-25.93371 1.46988,-38.85379 7.14446,3.69502 11.47291,11.22194 11.07308,19.25541 z M 155.58327,155.06113 c -9.35823,9.30922 -10.37264,25.17096 -2.82727,41.38862 0.80373,1.73668 2.545,2.84649 4.45864,2.84177 3.52901,-0.0427 5.85688,-3.68954 4.40963,-6.90843 -9.35823,-20.43131 12.88593,-33.90518 18.0305,-36.69796 1.91085,0 3.7727,0 5.68354,0.29398 -5.58554,9.50522 -9.21125,22.19516 0,30.27948 4.61158,2.90397 9.80701,-2.76021 6.51646,-7.1044 -5.9285,-4.89959 5.19928,-15.93234 8.58001,-20.83193 48.26099,7.74136 80.98454,46.11382 80.98454,93.24791 0,52.76862 -46.15416,95.68906 -102.89145,95.68906 -56.73729,0 -102.891463,-42.92044 -102.891463,-95.68906 0,-47.37906 31.342893,-88.86568 79.946863,-96.50904 z m -88.472159,80.58536 c -2.099588,12.92008 -1.599864,26.12925 1.469882,38.85379 -7.964196,-3.15127 -13.017162,-11.04654 -12.542963,-19.59838 -0.360719,-7.99878 3.961965,-15.4774 11.073081,-19.15741 z"
       id="path1"
       sodipodi:nodetypes="cscscscsccccccccccccccssscccccc"
       style="stroke-width:4.89959" />
    <path
       d="m 204.15274,225.09274 a 4.8995933,4.8995933 0 0 1 4.89959,4.89958 9.1622394,9.1622394 0 0 0 7.88834,10.04417 9.1622394,9.1622394 0 0 0 7.88836,-10.04417 4.8995982,4.8995982 0 0 1 9.79919,0 18.91243,18.91243 0 0 1 -17.68755,19.84335 18.91243,18.91243 0 0 1 -17.68752,-19.84335 4.8995933,4.8995933 0 0 1 4.89959,-4.89958 z"
       id="path3"
       style="stroke-width:4.89959" />
    <path
       d="m 123.06446,225.09274 a 4.8995933,4.8995933 0 0 1 4.89961,4.89958 9.1622394,9.1622394 0 0 0 7.88835,10.04417 9.1622394,9.1622394 0 0 0 7.88834,-10.04417 4.8995933,4.8995933 0 0 1 9.79918,0 18.91243,18.91243 0 0 1 -17.68752,19.84335 18.91243,18.91243 0 0 1 -17.68755,-19.84335 4.8995933,4.8995933 0 0 1 4.89959,-4.89958 z"
       id="path2"
       style="stroke-width:4.89959" />
    <path
       d="m 178.52787,282.04566 c 7.64615,0.0142 14.52193,3.29435 19.31123,8.51695 4.30755,4.69726 6.92727,10.96585 6.9016,17.84286 0,6.53279 -9.7992,6.53279 -9.7992,0 0,-10.32821 -8.04202,-14.57344 -15.76379,-15.15316 -8.64016,-0.64865 -17.06348,3.59657 -17.06348,15.15316 0,6.53279 -9.79918,6.53279 -9.79918,0 -0.0542,-14.52313 11.68961,-26.3328 26.21282,-26.35981 z"
       id="path4"
       sodipodi:nodetypes="cscssscc"
       style="display:inline;stroke-width:4.89959" />
    <path
       style="fill:#e9c6af;stroke:#e9c6af;stroke-width:13.8071;stroke-dasharray:none;stroke-dashoffset:983.246"
       d="m 1094.4476,1026.5601 c 5.2675,-21.5094 7.9336,-60.04256 6.5019,-93.97108 l -1.6058,-38.05221 8.0264,5.71529 c 18.0713,12.86791 27.7044,34.06281 28.0257,61.66281 0.2947,25.30735 -7.3755,44.26599 -24.1729,59.74929 -13.6291,12.5628 -19.0396,14.1419 -16.7753,4.8959 z"
       id="path10"
       transform="scale(0.26458333)" />
    <path
       style="fill:#e9c6af;stroke:#e9c6af;stroke-width:5;stroke-dasharray:none;stroke-dashoffset:983.246"
       d="m 243.31421,1026.0975 c -18.24716,-13.4623 -30.68441,-38.76377 -30.68441,-62.42216 0,-22.42599 13.75657,-51.61661 29.66291,-62.94292 l 9.48047,-6.35323 -2.7429,41.4384 c -2.37997,35.95552 5.57469,87.17801 10.10354,98.98001 2.27869,5.9382 -5.51384,-1.0967 -15.81961,-8.7001 z"
       id="path11"
       transform="scale(0.26458333)"
       sodipodi:nodetypes="ssscsss" />
    <path
       style="fill:#e9c6af;stroke:#e9c6af;stroke-width:7.00000009;stroke-dashoffset:983.246;stroke-dasharray:none"
       d="m 643.46717,1309.3545 c -84.57234,-6.7777 -158.31529,-36.0082 -223.98383,-88.7835 -58.18453,-46.7607 -102.50553,-115.0591 -121.5862,-187.3636 -9.79475,-37.11639 -12.29657,-104.77455 -5.36471,-145.08128 5.20642,-30.27383 15.74069,-66.92471 25.7237,-89.49809 l 6.7017,-15.15372 h 348.00455 348.00452 l 7.1849,14.17865 c 10.7348,21.18421 23.178,60.39379 28.2667,89.07133 5.7874,32.61442 5.887,91.56453 0.2085,123.36691 -19.6341,109.961 -98.26,209.4604 -206.37895,261.1684 -62.54377,29.9116 -137.22177,43.6694 -206.78088,38.0949 z m -35.35534,-129.9004 c 3.11127,-3.1113 5.66396,-9.157 5.67264,-13.435 0.0897,-44.2279 42.51895,-68.3039 87.66546,-49.7448 20.60942,8.4722 33.8811,27.9325 33.92534,49.7448 0.0345,17.0011 22.01481,25.3771 34.31538,13.0765 5.21452,-5.2145 5.8284,-8.3439 4.61119,-23.5076 -1.83081,-22.8083 -9.87526,-40.4315 -26.63391,-58.3479 -23.57118,-25.1995 -55.31086,-36.0012 -89.66802,-30.5161 -36.21379,5.7815 -67.60509,32.5141 -78.10704,66.5155 -10.42801,33.762 -5.51348,51.8715 14.07683,51.8715 4.71405,0 10.99944,-2.5142 14.14213,-5.6569 z M 536.07668,940.59681 c 24.00018,-10.02792 41.34002,-32.36438 45.12451,-58.12755 3.3344,-22.69921 -7.88939,-36.67288 -25.83776,-32.16813 -7.73175,1.94055 -10.96502,7.78935 -13.76264,24.89588 -2.29464,14.03094 -17.2832,29.89967 -28.24127,29.89967 -10.95806,0 -25.94662,-15.86873 -28.24126,-29.89967 -2.79762,-17.10653 -6.03089,-22.95533 -13.76264,-24.89588 -17.54965,-4.40468 -29.17003,9.41786 -25.74763,30.62702 7.52132,46.61083 51.80985,75.82135 90.46869,59.66866 z m 311.15284,-2.59667 c 24.02198,-11.18609 37.9616,-31.9458 40.20332,-59.87321 1.30917,-16.30951 0.93313,-17.68584 -6.41049,-23.46233 -9.7493,-7.66881 -15.56019,-7.73247 -25.0417,-0.27432 -5.63194,4.43008 -7.45509,8.40308 -7.46309,16.26346 -0.0214,21.03468 -19.48781,38.62478 -36.22924,32.73714 -9.95813,-3.50209 -20.32872,-19.5043 -20.32872,-31.36795 0,-10.84945 -10.38172,-23.49479 -19.289,-23.49479 -2.97217,0 -8.7576,2.63796 -12.85647,5.86214 -6.3455,4.99137 -7.44841,8.03739 -7.42488,20.5061 0.052,27.57075 20.23556,56.74138 45.61492,65.92576 15.31404,5.54191 33.50326,4.49915 49.22535,-2.822 z"
       id="path5"
       transform="scale(0.26458333)" />
  </g>
  <g
     inkscape:groupmode="layer"
     id="layer2"
     inkscape:label="Ebene 2"
     style="display:inline">
    <path
       style="fill:#ffffff;stroke:#ffffff;stroke-width:1.32292;stroke-dasharray:none;stroke-dashoffset:983.246"
       d="m 87.881957,155.1097 v -13.582 l -8.24529,-8.51948 C 67.302027,120.26343 62.275276,112.52058 58.441553,100.36077 50.52415,75.248351 57.211385,48.012455 75.819156,29.584954 99.990512,5.647761 136.21653,2.0775106 164.43237,20.851687 c 3.36593,2.239611 6.29236,4.521534 6.50319,5.070938 0.23338,0.608182 -3.75681,5.117775 -10.20092,11.528775 -10.41919,10.365647 -13.03118,14.070255 -11.93484,16.927271 0.49191,1.28189 4.93963,1.436026 7.26118,0.251637 0.87773,-0.447794 8.50031,-7.64658 16.93906,-15.997303 10.0669,-9.961893 17.16032,-16.349382 20.62737,-18.574541 35.4014,-22.7206754 82.45378,-9.475957 101.05218,28.445055 5.29243,10.790944 6.8911,18.026546 6.86071,31.051661 -0.0286,12.242456 -1.44543,18.938933 -6.1246,28.9466 -4.10608,8.78194 -8.12514,14.2575 -17.71652,24.13697 l -8.62165,8.88062 v 13.58617 13.58617 H 178.47974 87.881957 Z"
       id="path7"
       inkscape:label="path7" />
    <path
       style="fill:#ffffff;stroke:#ffffff;stroke-width:1.32292;stroke-dasharray:none;stroke-dashoffset:983.246"
       d="m 87.881957,188.41865 v -10.22878 h 90.597783 90.59779 v 10.22878 10.22878 H 178.47974 87.881957 Z"
       id="path8" />
  </g>
  <g
     inkscape:label="Ebene 1"
     inkscape:groupmode="layer"
     id="layer1"
     style="display:inline">
    <path
       d="M 287.63818,23.218362 C 272.66727,8.2474328 252.76197,0.00264583 231.58974,0.00264583 c -19.79322,0 -38.47941,7.20644697 -53.06178,20.37717017 C 163.94559,7.2085228 145.25884,0.00264583 125.46618,0.00264583 c -21.17223,0 -41.077502,8.24478697 -56.048408,23.21571617 -30.905232,30.905303 -30.905227,81.191708 0,112.097028 l 9.5123,9.51233 v 58.04898 c 0,2.33233 1.89086,4.2232 4.223184,4.2232 H 273.90326 c 2.33232,0 4.22318,-1.89087 4.22318,-4.2232 v -58.04898 l 9.5123,-9.51233 c 30.90414,-30.90532 30.90414,-81.191725 -4.5e-4,-112.097028 z M 87.375877,198.65351 V 177.63963 H 269.67951 v 21.01388 z m 194.289593,-69.31084 -10.74941,10.74944 c -0.79199,0.79199 -1.23711,1.86608 -1.23711,2.98607 v 26.11451 H 87.375877 v -26.11451 c 0,-1.11999 -0.445122,-2.19408 -1.237111,-2.98607 L 75.389354,129.34267 C 47.77764,101.73088 47.77764,56.802867 75.389354,29.190516 88.765023,15.814828 106.54913,8.4484528 125.46562,8.4484528 c 17.50144,0 34.03042,6.3100142 46.99897,17.8466442 l -20.81354,20.813011 c -1.64929,1.64929 -3.63363,6.307757 -1.98434,7.956497 0.82437,0.82493 3.26178,0.18075 4.30897,-0.0858 1.13853,-0.28979 2.82288,-1.073914 3.64752,-1.89856 l 23.69094,-23.690977 c 0.0344,-0.03435 0.0631,-0.07095 0.0957,-0.10586 0.0338,-0.0321 0.0698,-0.06025 0.10304,-0.09347 13.37567,-13.375689 31.15978,-20.7420552 50.07571,-20.7420552 18.91649,0 36.70007,7.3663662 50.0763,20.7420552 27.6123,27.612919 27.6123,72.540922 4.5e-4,100.152722 z"
       id="path1-0"
       sodipodi:nodetypes="cscssscssssccccscccscsccscscscccscscsscscc"
       style="display:inline;stroke-width:0.563092" />
  </g>
  <g
     inkscape:groupmode="layer"
     id="layer5"
     inkscape:label="Ebene 4"
     style="display:inline">
    <path
       d="m 257.00994,120.56349 h -24.85092 l 16.09578,-20.55664 c 0.89869,-2.152143 -0.77857,-31.877363 -2.93127,-32.776053 -2.1527,-0.89871 -5.28724,27.36923 -6.18593,29.52137 l -16.13219,23.811323 h -40.25427 l 0.66145,-22.183983 c 0.0695,-2.33129 -2.55231,-31.47475 -4.88463,-31.47475 -2.33232,0 -4.95414,29.14347 -4.88463,31.47475 l 0.66144,22.183983 H 134.05051 L 117.91832,96.752167 c -0.89869,-2.1527 -4.0338,-30.41895 -6.18593,-29.52138 -2.15214,0.8987 -3.82996,30.62392 -2.93127,32.776063 l 16.09578,20.55664 h -24.85147 c -2.332322,0 -4.223184,1.89088 -4.223184,4.2232 0,2.33232 1.890862,4.22319 4.223184,4.22319 h 156.96451 c 2.33233,0 4.2232,-1.89087 4.2232,-4.22319 0,-2.33232 -1.89087,-4.2232 -4.2232,-4.2232 z"
       id="path2-9"
       sodipodi:nodetypes="sccscccsssccccccssssss"
       style="stroke-width:0.563092"
       inkscape:label="path2-9" />
  </g>
</svg>
